<?xml version="1.0" encoding="iso-8859-1"?>
<!-- Uploaded to: SVG Repo, www.svgrepo.com, Generator: SVG Repo Mixer Tools -->
<svg version="1.1" id="Layer_1" xmlns="http://www.w3.org/2000/svg" xmlns:xlink="http://www.w3.org/1999/xlink" 
	 viewBox="0 0 512.001 512.001" xml:space="preserve">
<path style="fill:#82C8DB;" d="M348.949,214.249V98.6h-32.343v185.193l75.84-20.542
	C385.657,241.344,369.645,223.493,348.949,214.249z"/>
<path style="fill:#A3DDE9;" d="M336.398,214.249V98.6h-52.135v115.649c-20.696,9.244-36.708,27.094-43.497,49.002l75.84,20.542
	L363,263.251C358.861,241.344,349.062,223.493,336.398,214.249z"/>
<path style="fill:#146A8A;" d="M392.446,263.251H363l-46.393,102.903c43.846,0,79.383-35.547,79.383-79.383
	C395.99,278.575,394.747,270.677,392.446,263.251z"/>
<path style="fill:#2089B0;" d="M363,263.251H240.767c-2.301,7.426-3.543,15.324-3.543,23.52c0,43.836,35.537,79.383,79.383,79.383
	c26.827,0,48.571-35.547,48.571-79.383C365.177,278.575,364.417,270.677,363,263.251z"/>
<rect x="136.428" y="7.703" style="fill:#6DDEB4;" width="26.704" height="476.052"/>
<g>
	<circle style="fill:#146A8A;" cx="149.78" cy="164.847" r="20.542"/>
	<circle style="fill:#146A8A;" cx="149.78" cy="335.342" r="20.541"/>
</g>
<polygon style="fill:#084B63;" points="413.06,463.214 382.247,463.214 149.778,463.214 124.101,483.755 139.507,504.297 
	392.518,504.297 423.331,504.297 "/>
<polygon style="fill:#146A8A;" points="149.778,463.214 139.507,504.297 108.694,504.297 118.965,463.214 "/>
<path d="M431.058,502.429l-10.271-41.083c-0.858-3.429-3.939-5.835-7.473-5.835H171.096V354.142
	c2.813-3.148,4.929-6.928,6.113-11.098h73.269c15.987,18.831,39.808,30.812,66.386,30.812s50.399-11.982,66.386-30.812h6.674
	c4.255,0,7.703-3.448,7.703-7.703c0-3.035-1.759-5.653-4.311-6.908c6.776-12.384,10.634-26.581,10.634-41.664
	c0-32.627-18.305-62.456-47.042-77.351v-36.871h2.568c4.255,0,7.703-3.448,7.703-7.703s-3.448-7.703-7.703-7.703h-2.568v-50.841
	h4.057c4.255,0,7.703-3.448,7.703-7.703s-3.448-7.703-7.703-7.703h-88.205c-4.255,0-7.703,3.448-7.703,7.703
	s3.448,7.703,7.703,7.703h4.058v50.841h-99.612c-1.184-4.169-3.299-7.949-6.112-11.097V7.703c0-4.255-3.448-7.703-7.703-7.703
	h-26.704c-4.255,0-7.703,3.448-7.703,7.703v138.343c-2.813,3.148-4.929,6.928-6.113,11.097H88.416c-4.255,0-7.703,3.448-7.703,7.703
	s3.448,7.703,7.703,7.703h34.457c1.184,4.17,3.299,7.95,6.113,11.098v132.896c-2.813,3.147-4.928,6.927-6.112,11.096H88.416
	c-4.255,0-7.703,3.448-7.703,7.703c0,4.255,3.448,7.703,7.703,7.703h34.458c1.184,4.169,3.299,7.949,6.112,11.096v101.371h-9.757
	c-3.534,0-6.615,2.405-7.473,5.835l-10.271,41.083c-0.575,2.302-0.059,4.739,1.402,6.609c1.459,1.869,3.7,2.963,6.071,2.963h314.628
	c2.373,0,4.612-1.094,6.071-2.963C431.117,507.168,431.634,504.73,431.058,502.429z M162.878,164.846
	c0,7.08-5.759,12.839-12.837,12.839c-7.076,0-12.832-5.754-12.837-12.828c0-0.003,0-0.007,0-0.01c0-0.003,0-0.006,0-0.01
	c0.005-7.075,5.762-12.828,12.837-12.828C157.119,152.007,162.878,157.766,162.878,164.846z M150.041,193.09
	c1.934,0,3.823-0.196,5.649-0.568v115.143c-1.825-0.372-3.714-0.568-5.648-0.568s-3.824,0.196-5.65,0.569V192.522
	C146.218,192.894,148.107,193.09,150.041,193.09z M137.203,335.341c0-7.08,5.759-12.839,12.839-12.839
	c7.079,0,12.837,5.759,12.837,12.839s-5.759,12.839-12.837,12.839C142.962,348.18,137.203,342.421,137.203,335.341z M316.864,358.45
	c-16.722,0-32.113-5.771-44.32-15.406h88.639C348.977,352.679,333.586,358.45,316.864,358.45z M346.064,221.287
	c25.805,11.528,42.48,37.231,42.48,65.483c0,15.181-4.757,29.266-12.842,40.869H258.025c-8.083-11.603-12.842-25.686-12.842-40.869
	c0-28.252,16.675-53.955,42.481-65.483c2.775-1.239,4.561-3.994,4.561-7.033v-41.706h49.276v41.706
	C341.503,217.293,343.289,220.048,346.064,221.287z M292.226,106.302h49.276v50.841h-49.276V106.302z M276.819,209.42
	c-28.739,14.896-47.043,44.723-47.043,77.351c0,14.763,3.705,28.673,10.214,40.869h-62.782c-1.184-4.17-3.3-7.95-6.113-11.098
	V183.645c2.813-3.147,4.928-6.927,6.112-11.097h99.612V209.42z M155.69,15.406V137.17c-1.826-0.372-3.715-0.569-5.649-0.569
	c-1.934,0-3.823,0.196-5.649,0.569V15.406H155.69z M144.392,363.017c1.826,0.372,3.715,0.569,5.65,0.569
	c1.934,0,3.823-0.196,5.648-0.568v92.493h-11.298V363.017z M118.823,496.594l6.419-25.677H407.3l6.419,25.677H118.823z"/>
<path d="M266.676,263.248c0,4.255,3.449,7.703,7.703,7.703h84.969c4.255,0,7.703-3.448,7.703-7.703c0-4.255-3.448-7.703-7.703-7.703
	h-84.969C270.125,255.545,266.676,258.993,266.676,263.248z"/>
</svg>