<?xml version="1.0" encoding="us-ascii" standalone="no"?><svg xmlns="http://www.w3.org/2000/svg" xmlns:xlink="http://www.w3.org/1999/xlink" contentStyleType="text/css" height="3699px" preserveAspectRatio="none" style="width:356px;height:3699px;background:#FFFFFF;" version="1.1" viewBox="0 0 356 3699" width="356px" zoomAndPan="magnify"><defs/><g><ellipse cx="204.25" cy="16" fill="#222222" rx="10" ry="10" style="stroke:#222222;stroke-width:1.0;"/><path d="M82.25,87 L326.25,87 A12.5,12.5 0 0 1 338.75,99.5 L338.75,113.2969 L69.75,113.2969 L69.75,99.5 A12.5,12.5 0 0 1 82.25,87 " fill="#F1F1F1" style="stroke:#F1F1F1;stroke-width:1.0;"/><rect fill="none" height="480.2969" rx="12.5" ry="12.5" style="stroke:#181818;stroke-width:0.5;" width="269" x="69.75" y="87"/><line style="stroke:#181818;stroke-width:0.5;" x1="69.75" x2="338.75" y1="113.2969" y2="113.2969"/><text fill="#000000" font-family="sans-serif" font-size="14" lengthAdjust="spacing" textLength="86" x="161.25" y="104.9951">Define goals</text><ellipse cx="171.75" cy="134.2969" fill="#222222" rx="10" ry="10" style="stroke:#222222;stroke-width:1.0;"/><g id="GoalsDefined.ReadSpecs"><rect fill="#F1F1F1" height="50" rx="12.5" ry="12.5" style="stroke:#181818;stroke-width:0.5;" width="99" x="122.25" y="181.2969"/><line style="stroke:#181818;stroke-width:0.5;" x1="122.25" x2="221.25" y1="207.5938" y2="207.5938"/><text fill="#000000" font-family="sans-serif" font-size="14" lengthAdjust="spacing" textLength="79" x="132.25" y="199.292">ReadSpecs</text></g><g id="GoalsDefined.SetGoals"><rect fill="#F1F1F1" height="50" rx="12.5" ry="12.5" style="stroke:#181818;stroke-width:0.5;" width="82" x="81.75" y="299.2969"/><line style="stroke:#181818;stroke-width:0.5;" x1="81.75" x2="163.75" y1="325.5938" y2="325.5938"/><text fill="#000000" font-family="sans-serif" font-size="14" lengthAdjust="spacing" textLength="62" x="91.75" y="317.292">SetGoals</text></g><g id="GoalsDefined.ValidateGoals"><rect fill="#F1F1F1" height="50" rx="12.5" ry="12.5" style="stroke:#181818;stroke-width:0.5;" width="113" x="122.25" y="417.2969"/><line style="stroke:#181818;stroke-width:0.5;" x1="122.25" x2="235.25" y1="443.5938" y2="443.5938"/><text fill="#000000" font-family="sans-serif" font-size="14" lengthAdjust="spacing" textLength="93" x="132.25" y="435.292">ValidateGoals</text></g><ellipse cx="178.75" cy="546.2969" fill="none" rx="11" ry="11" style="stroke:#222222;stroke-width:1.0;"/><ellipse cx="178.75" cy="546.2969" fill="#222222" rx="6" ry="6" style="stroke:#222222;stroke-width:1.0;"/><!--link *start*GoalsDefined to ReadSpecs--><g id="link_*start*GoalsDefined_ReadSpecs"><path d="M171.75,144.7369 C171.75,153.9969 171.75,162.4869 171.75,174.9769 " fill="none" id="*start*GoalsDefined-to-ReadSpecs" style="stroke:#181818;stroke-width:1.0;"/><polygon fill="#181818" points="171.75,180.9769,175.75,171.9769,171.75,175.9769,167.75,171.9769,171.75,180.9769" style="stroke:#181818;stroke-width:1.0;"/></g><!--link ReadSpecs to SetGoals--><g id="link_ReadSpecs_SetGoals"><path d="M130.55,231.5969 C124.98,236.7169 120.05,242.6169 116.75,249.2969 C109.15,264.6669 109.6796,278.2002 113.2696,293.2702 " fill="none" id="ReadSpecs-to-SetGoals" style="stroke:#181818;stroke-width:1.0;"/><polygon fill="#181818" points="114.66,299.1069,116.4655,289.4249,113.5013,294.243,108.6833,291.2788,114.66,299.1069" style="stroke:#181818;stroke-width:1.0;"/><text fill="#000000" font-family="sans-serif" font-size="13" lengthAdjust="spacing" textLength="96" x="117.75" y="262.3638">choose feature</text><text fill="#000000" font-family="sans-serif" font-size="13" lengthAdjust="spacing" textLength="86" x="122.75" y="277.4966">to implement</text></g><!--link SetGoals to ValidateGoals--><g id="link_SetGoals_ValidateGoals"><path d="M126.97,349.5869 C130.2,364.5169 135.52,383.7069 143.75,399.2969 C147.03,405.5069 147.5939,406.95 152.0539,412.53 " fill="none" id="SetGoals-to-ValidateGoals" style="stroke:#181818;stroke-width:1.0;"/><polygon fill="#181818" points="155.8,417.2169,153.3054,407.6892,152.6782,413.3112,147.0563,412.684,155.8,417.2169" style="stroke:#181818;stroke-width:1.0;"/><text fill="#000000" font-family="sans-serif" font-size="13" lengthAdjust="spacing" textLength="69" x="144.75" y="380.3638">daily sprint</text><text fill="#000000" font-family="sans-serif" font-size="13" lengthAdjust="spacing" textLength="47" x="155.75" y="395.4966">defined</text></g><!--link ValidateGoals to ReadSpecs--><g id="link_ValidateGoals_ReadSpecs"><path d="M204.45,416.9869 C208.67,411.5969 212.42,405.6069 214.75,399.2969 C237.88,336.7669 240.62,310.7369 214.75,249.2969 C212,242.7569 211.7172,241.1563 206.8472,235.8263 " fill="none" id="ValidateGoals-to-ReadSpecs" style="stroke:#181818;stroke-width:1.0;"/><polygon fill="#181818" points="202.8,231.3969,205.9178,240.7392,206.1727,235.0881,211.8238,235.343,202.8,231.3969" style="stroke:#181818;stroke-width:1.0;"/><text fill="#000000" font-family="sans-serif" font-size="13" lengthAdjust="spacing" textLength="44" x="259.25" y="321.3638">did not</text><text fill="#000000" font-family="sans-serif" font-size="13" lengthAdjust="spacing" textLength="95" x="233.75" y="336.4966">pass validation</text></g><!--link ValidateGoals to *end*GoalsDefined--><g id="link_ValidateGoals_*end*GoalsDefined"><path d="M178.75,467.7269 C178.75,489.1769 178.75,513.3369 178.75,528.9769 " fill="none" id="ValidateGoals-to-*end*GoalsDefined" style="stroke:#181818;stroke-width:1.0;"/><polygon fill="#181818" points="178.75,534.9769,182.75,525.9769,178.75,529.9769,174.75,525.9769,178.75,534.9769" style="stroke:#181818;stroke-width:1.0;"/><text fill="#000000" font-family="sans-serif" font-size="13" lengthAdjust="spacing" textLength="46" x="187.25" y="498.3638">passed</text><text fill="#000000" font-family="sans-serif" font-size="13" lengthAdjust="spacing" textLength="61" x="179.75" y="513.4966">validation</text></g><path d="M125.5,628.3 L283,628.3 A12.5,12.5 0 0 1 295.5,640.8 L295.5,654.5969 L113,654.5969 L113,640.8 A12.5,12.5 0 0 1 125.5,628.3 " fill="#F1F1F1" style="stroke:#F1F1F1;stroke-width:1.0;"/><rect fill="none" height="480.2969" rx="12.5" ry="12.5" style="stroke:#181818;stroke-width:0.5;" width="182.5" x="113" y="628.3"/><line style="stroke:#181818;stroke-width:0.5;" x1="113" x2="295.5" y1="654.5969" y2="654.5969"/><text fill="#000000" font-family="sans-serif" font-size="14" lengthAdjust="spacing" textLength="148" x="130.25" y="646.2951">Code implementation</text><ellipse cx="189.5" cy="675.5969" fill="#222222" rx="10" ry="10" style="stroke:#222222;stroke-width:1.0;"/><g id="ImplementInCode.WriteTestCases"><rect fill="#F1F1F1" height="50" rx="12.5" ry="12.5" style="stroke:#181818;stroke-width:0.5;" width="129" x="125" y="722.5969"/><line style="stroke:#181818;stroke-width:0.5;" x1="125" x2="254" y1="748.8937" y2="748.8937"/><text fill="#000000" font-family="sans-serif" font-size="14" lengthAdjust="spacing" textLength="109" x="135" y="740.592">WriteTestCases</text></g><g id="ImplementInCode.TestValidation"><rect fill="#F1F1F1" height="50" rx="12.5" ry="12.5" style="stroke:#181818;stroke-width:0.5;" width="117" x="131" y="840.5969"/><line style="stroke:#181818;stroke-width:0.5;" x1="131" x2="248" y1="866.8937" y2="866.8937"/><text fill="#000000" font-family="sans-serif" font-size="14" lengthAdjust="spacing" textLength="97" x="141" y="858.592">TestValidation</text></g><g id="ImplementInCode.Coding"><rect fill="#F1F1F1" height="50" rx="12.5" ry="12.5" style="stroke:#181818;stroke-width:0.5;" width="69" x="155" y="958.5969"/><line style="stroke:#181818;stroke-width:0.5;" x1="155" x2="224" y1="984.8937" y2="984.8937"/><text fill="#000000" font-family="sans-serif" font-size="14" lengthAdjust="spacing" textLength="49" x="165" y="976.592">Coding</text></g><ellipse cx="189.5" cy="1087.5969" fill="none" rx="11" ry="11" style="stroke:#222222;stroke-width:1.0;"/><ellipse cx="189.5" cy="1087.5969" fill="#222222" rx="6" ry="6" style="stroke:#222222;stroke-width:1.0;"/><!--link *start*ImplementInCode to WriteTestCases--><g id="link_*start*ImplementInCode_WriteTestCases"><path d="M189.5,686.0369 C189.5,695.2969 189.5,703.7869 189.5,716.2769 " fill="none" id="*start*ImplementInCode-to-WriteTestCases" style="stroke:#181818;stroke-width:1.0;"/><polygon fill="#181818" points="189.5,722.2769,193.5,713.2769,189.5,717.2769,185.5,713.2769,189.5,722.2769" style="stroke:#181818;stroke-width:1.0;"/></g><!--link WriteTestCases to TestValidation--><g id="link_WriteTestCases_TestValidation"><path d="M149.04,773.0069 C143.57,778.1069 138.74,783.9869 135.5,790.5969 C129.25,803.3769 129.25,809.8169 135.5,822.5969 C138.74,829.2069 139.1815,830.9953 144.6515,836.0953 " fill="none" id="WriteTestCases-to-TestValidation" style="stroke:#181818;stroke-width:1.0;"/><polygon fill="#181818" points="149.04,840.1869,145.1851,831.1238,145.3829,836.7772,139.7296,836.9751,149.04,840.1869" style="stroke:#181818;stroke-width:1.0;"/><text fill="#000000" font-family="sans-serif" font-size="13" lengthAdjust="spacing" textLength="85" x="136.5" y="803.6638">implemented</text><text fill="#000000" font-family="sans-serif" font-size="13" lengthAdjust="spacing" textLength="32" x="163" y="818.7966">tests</text></g><!--link TestValidation to WriteTestCases--><g id="link_TestValidation_WriteTestCases"><path d="M212.76,840.4769 C216.75,834.9869 220.32,828.9069 222.5,822.5969 C227.15,809.1569 227.15,804.0369 222.5,790.5969 C220.32,784.2869 220.2775,783.0604 216.2875,777.5704 " fill="none" id="TestValidation-to-WriteTestCases" style="stroke:#181818;stroke-width:1.0;"/><polygon fill="#181818" points="212.76,772.7169,214.8155,782.3489,215.6995,776.7615,221.2869,777.6456,212.76,772.7169" style="stroke:#181818;stroke-width:1.0;"/><text fill="#000000" font-family="sans-serif" font-size="13" lengthAdjust="spacing" textLength="32" x="237.5" y="803.6638">tests</text><text fill="#000000" font-family="sans-serif" font-size="13" lengthAdjust="spacing" textLength="54" x="226.5" y="818.7966">not valid</text></g><!--link TestValidation to Coding--><g id="link_TestValidation_Coding"><path d="M189.5,890.9169 C189.5,910.7169 189.5,932.5269 189.5,952.3069 " fill="none" id="TestValidation-to-Coding" style="stroke:#181818;stroke-width:1.0;"/><polygon fill="#181818" points="189.5,958.3069,193.5,949.3069,189.5,953.3069,185.5,949.3069,189.5,958.3069" style="stroke:#181818;stroke-width:1.0;"/><text fill="#000000" font-family="sans-serif" font-size="13" lengthAdjust="spacing" textLength="32" x="222" y="921.6638">tests</text><text fill="#000000" font-family="sans-serif" font-size="13" lengthAdjust="spacing" textLength="95" x="190.5" y="936.7966">pass validation</text></g><!--link Coding to *end*ImplementInCode--><g id="link_Coding_*end*ImplementInCode"><path d="M189.5,1009.0269 C189.5,1030.4769 189.5,1054.6369 189.5,1070.2769 " fill="none" id="Coding-to-*end*ImplementInCode" style="stroke:#181818;stroke-width:1.0;"/><polygon fill="#181818" points="189.5,1076.2769,193.5,1067.2769,189.5,1071.2769,185.5,1067.2769,189.5,1076.2769" style="stroke:#181818;stroke-width:1.0;"/><text fill="#000000" font-family="sans-serif" font-size="13" lengthAdjust="spacing" textLength="87" x="190.5" y="1039.6638">implement all</text><text fill="#000000" font-family="sans-serif" font-size="13" lengthAdjust="spacing" textLength="74" x="197" y="1054.7966">sprint goals</text></g><path d="M19.5,1169.6 L223,1169.6 A12.5,12.5 0 0 1 235.5,1182.1 L235.5,1195.8969 L7,1195.8969 L7,1182.1 A12.5,12.5 0 0 1 19.5,1169.6 " fill="#F1F1F1" style="stroke:#F1F1F1;stroke-width:1.0;"/><rect fill="none" height="362.2969" rx="12.5" ry="12.5" style="stroke:#181818;stroke-width:0.5;" width="228.5" x="7" y="1169.6"/><line style="stroke:#181818;stroke-width:0.5;" x1="7" x2="235.5" y1="1195.8969" y2="1195.8969"/><text fill="#000000" font-family="sans-serif" font-size="14" lengthAdjust="spacing" textLength="150" x="46.25" y="1187.5951">Testing and validation</text><ellipse cx="117.5" cy="1216.8969" fill="#222222" rx="10" ry="10" style="stroke:#222222;stroke-width:1.0;"/><g id="TestAndValidate.InitiateTestsAndValidation"><rect fill="#F1F1F1" height="50" rx="12.5" ry="12.5" style="stroke:#181818;stroke-width:0.5;" width="197" x="19" y="1263.8969"/><line style="stroke:#181818;stroke-width:0.5;" x1="19" x2="216" y1="1290.1938" y2="1290.1938"/><text fill="#000000" font-family="sans-serif" font-size="14" lengthAdjust="spacing" textLength="177" x="29" y="1281.892">InitiateTestsAndValidation</text></g><g id="TestAndValidate.Testing"><rect fill="#F1F1F1" height="50" rx="12.5" ry="12.5" style="stroke:#181818;stroke-width:0.5;" width="72" x="33.5" y="1381.8969"/><line style="stroke:#181818;stroke-width:0.5;" x1="33.5" x2="105.5" y1="1408.1938" y2="1408.1938"/><text fill="#000000" font-family="sans-serif" font-size="14" lengthAdjust="spacing" textLength="52" x="43.5" y="1399.892">Testing</text></g><g id="TestAndValidate.Validation"><rect fill="#F1F1F1" height="50" rx="12.5" ry="12.5" style="stroke:#181818;stroke-width:0.5;" width="86" x="123.5" y="1381.8969"/><line style="stroke:#181818;stroke-width:0.5;" x1="123.5" x2="209.5" y1="1408.1938" y2="1408.1938"/><text fill="#000000" font-family="sans-serif" font-size="14" lengthAdjust="spacing" textLength="66" x="133.5" y="1399.892">Validation</text></g><ellipse cx="117.5" cy="1510.8969" fill="none" rx="11" ry="11" style="stroke:#222222;stroke-width:1.0;"/><ellipse cx="117.5" cy="1510.8969" fill="#222222" rx="6" ry="6" style="stroke:#222222;stroke-width:1.0;"/><!--link *start*TestAndValidate to InitiateTestsAndValidation--><g id="link_*start*TestAndValidate_InitiateTestsAndValidation"><path d="M117.5,1227.3369 C117.5,1236.5969 117.5,1245.0869 117.5,1257.5769 " fill="none" id="*start*TestAndValidate-to-InitiateTestsAndValidation" style="stroke:#181818;stroke-width:1.0;"/><polygon fill="#181818" points="117.5,1263.5769,121.5,1254.5769,117.5,1258.5769,113.5,1254.5769,117.5,1263.5769" style="stroke:#181818;stroke-width:1.0;"/></g><!--link InitiateTestsAndValidation to Testing--><g id="link_InitiateTestsAndValidation_Testing"><path d="M86.8,1314.1569 C81.9,1319.4669 77.47,1325.4569 74.5,1331.8969 C67.38,1347.3269 66.0297,1360.5317 66.6297,1375.5017 " fill="none" id="InitiateTestsAndValidation-to-Testing" style="stroke:#181818;stroke-width:1.0;"/><polygon fill="#181818" points="66.87,1381.4969,70.5064,1372.3439,66.6698,1376.5009,62.5128,1372.6643,66.87,1381.4969" style="stroke:#181818;stroke-width:1.0;"/></g><!--link InitiateTestsAndValidation to Validation--><g id="link_InitiateTestsAndValidation_Validation"><path d="M127.77,1314.2169 C136.13,1334.0169 145.5442,1356.3002 153.9042,1376.0802 " fill="none" id="InitiateTestsAndValidation-to-Validation" style="stroke:#181818;stroke-width:1.0;"/><polygon fill="#181818" points="156.24,1381.6069,156.4207,1371.7597,154.2935,1377.0013,149.0518,1374.8741,156.24,1381.6069" style="stroke:#181818;stroke-width:1.0;"/></g><!--link Testing to InitiateTestsAndValidation--><g id="link_Testing_InitiateTestsAndValidation"><path d="M76.56,1381.4969 C81.08,1366.8669 87.42,1348.0369 94.5,1331.8969 C97.11,1325.9569 97.4061,1325.0147 100.5261,1319.2447 " fill="none" id="Testing-to-InitiateTestsAndValidation" style="stroke:#181818;stroke-width:1.0;"/><polygon fill="#181818" points="103.38,1313.9669,95.5806,1319.981,101.0018,1318.3651,102.6177,1323.7862,103.38,1313.9669" style="stroke:#181818;stroke-width:1.0;"/><text fill="#000000" font-family="sans-serif" font-size="13" lengthAdjust="spacing" textLength="18" x="102.5" y="1344.9638">fail</text><text fill="#000000" font-family="sans-serif" font-size="13" lengthAdjust="spacing" textLength="32" x="95.5" y="1360.0966">tests</text></g><!--link Validation to InitiateTestsAndValidation--><g id="link_Validation_InitiateTestsAndValidation"><path d="M165.48,1381.5869 C164.08,1366.6569 160.85,1347.4669 153.5,1331.8969 C150.55,1325.6469 150.182,1324.2529 145.752,1318.7729 " fill="none" id="Validation-to-InitiateTestsAndValidation" style="stroke:#181818;stroke-width:1.0;"/><polygon fill="#181818" points="141.98,1314.1069,144.5273,1323.6206,145.1233,1317.9952,150.7487,1318.5913,141.98,1314.1069" style="stroke:#181818;stroke-width:1.0;"/><text fill="#000000" font-family="sans-serif" font-size="13" lengthAdjust="spacing" textLength="18" x="186" y="1344.9638">fail</text><text fill="#000000" font-family="sans-serif" font-size="13" lengthAdjust="spacing" textLength="61" x="164.5" y="1360.0966">validation</text></g><!--link Testing to *end*TestAndValidate--><g id="link_Testing_*end*TestAndValidate"><path d="M78.66,1432.3069 C84.41,1446.9269 92.28,1465.7669 100.5,1481.8969 C103.91,1488.5869 105.0867,1490.7626 108.5667,1496.2026 " fill="none" id="Testing-to-*end*TestAndValidate" style="stroke:#181818;stroke-width:1.0;"/><polygon fill="#181818" points="111.8,1501.2569,110.3196,1491.5199,109.1056,1497.045,103.5806,1495.8309,111.8,1501.2569" style="stroke:#181818;stroke-width:1.0;"/><text fill="#000000" font-family="sans-serif" font-size="13" lengthAdjust="spacing" textLength="30" x="102.5" y="1462.9638">pass</text><text fill="#000000" font-family="sans-serif" font-size="13" lengthAdjust="spacing" textLength="32" x="101.5" y="1478.0966">tests</text></g><!--link Validation to *end*TestAndValidate--><g id="link_Validation_*end*TestAndValidate"><path d="M156.95,1432.2769 C150.97,1446.8969 142.85,1465.7269 134.5,1481.8969 C131.05,1488.5669 129.86,1490.7441 126.4,1496.1841 " fill="none" id="Validation-to-*end*TestAndValidate" style="stroke:#181818;stroke-width:1.0;"/><polygon fill="#181818" points="123.18,1501.2469,131.3852,1495.7995,125.8634,1497.0279,124.6349,1491.5061,123.18,1501.2469" style="stroke:#181818;stroke-width:1.0;"/><text fill="#000000" font-family="sans-serif" font-size="13" lengthAdjust="spacing" textLength="30" x="166" y="1462.9638">pass</text><text fill="#000000" font-family="sans-serif" font-size="13" lengthAdjust="spacing" textLength="61" x="150.5" y="1478.0966">validation</text></g><path d="M75.75,1638.89 L204.75,1638.89 A12.5,12.5 0 0 1 217.25,1651.39 L217.25,1665.1869 L63.25,1665.1869 L63.25,1651.39 A12.5,12.5 0 0 1 75.75,1638.89 " fill="#F1F1F1" style="stroke:#F1F1F1;stroke-width:1.0;"/><rect fill="none" height="347.2969" rx="12.5" ry="12.5" style="stroke:#181818;stroke-width:0.5;" width="154" x="63.25" y="1638.89"/><line style="stroke:#181818;stroke-width:0.5;" x1="63.25" x2="217.25" y1="1665.1869" y2="1665.1869"/><text fill="#000000" font-family="sans-serif" font-size="14" lengthAdjust="spacing" textLength="107" x="86.75" y="1656.8851">Documentation</text><ellipse cx="130.25" cy="1686.1869" fill="#222222" rx="10" ry="10" style="stroke:#222222;stroke-width:1.0;"/><g id="Documentation.WriteDocs"><rect fill="#F1F1F1" height="50" rx="12.5" ry="12.5" style="stroke:#181818;stroke-width:0.5;" width="91" x="84.75" y="1733.1869"/><line style="stroke:#181818;stroke-width:0.5;" x1="84.75" x2="175.75" y1="1759.4837" y2="1759.4837"/><text fill="#000000" font-family="sans-serif" font-size="14" lengthAdjust="spacing" textLength="71" x="94.75" y="1751.182">WriteDocs</text></g><g id="Documentation.ValidateDocs"><rect fill="#F1F1F1" height="50" rx="12.5" ry="12.5" style="stroke:#181818;stroke-width:0.5;" width="110" x="75.25" y="1851.1869"/><line style="stroke:#181818;stroke-width:0.5;" x1="75.25" x2="185.25" y1="1877.4837" y2="1877.4837"/><text fill="#000000" font-family="sans-serif" font-size="14" lengthAdjust="spacing" textLength="90" x="85.25" y="1869.182">ValidateDocs</text></g><ellipse cx="130.25" cy="1965.1869" fill="none" rx="11" ry="11" style="stroke:#222222;stroke-width:1.0;"/><ellipse cx="130.25" cy="1965.1869" fill="#222222" rx="6" ry="6" style="stroke:#222222;stroke-width:1.0;"/><!--link *start*Documentation to WriteDocs--><g id="link_*start*Documentation_WriteDocs"><path d="M130.25,1696.6269 C130.25,1705.8869 130.25,1714.3769 130.25,1726.8669 " fill="none" id="*start*Documentation-to-WriteDocs" style="stroke:#181818;stroke-width:1.0;"/><polygon fill="#181818" points="130.25,1732.8669,134.25,1723.8669,130.25,1727.8669,126.25,1723.8669,130.25,1732.8669" style="stroke:#181818;stroke-width:1.0;"/></g><!--link WriteDocs to ValidateDocs--><g id="link_WriteDocs_ValidateDocs"><path d="M128.89,1783.6069 C128.62,1789.3769 128.39,1795.4969 128.25,1801.1869 C127.91,1815.4069 127.91,1818.9669 128.25,1833.1869 C128.39,1838.8769 128.3395,1839.0034 128.6095,1844.7734 " fill="none" id="WriteDocs-to-ValidateDocs" style="stroke:#181818;stroke-width:1.0;"/><polygon fill="#181818" points="128.89,1850.7669,132.4649,1841.5897,128.6563,1845.7723,124.4737,1841.9637,128.89,1850.7669" style="stroke:#181818;stroke-width:1.0;"/></g><!--link ValidateDocs to WriteDocs--><g id="link_ValidateDocs_WriteDocs"><path d="M130.25,1850.8969 C130.25,1831.1169 130.25,1809.3069 130.25,1789.5069 " fill="none" id="ValidateDocs-to-WriteDocs" style="stroke:#181818;stroke-width:1.0;"/><polygon fill="#181818" points="130.25,1783.5069,126.25,1792.5069,130.25,1788.5069,134.25,1792.5069,130.25,1783.5069" style="stroke:#181818;stroke-width:1.0;"/><text fill="#000000" font-family="sans-serif" font-size="13" lengthAdjust="spacing" textLength="76" x="131.25" y="1814.2538">docs wrong:</text><text fill="#000000" font-family="sans-serif" font-size="13" lengthAdjust="spacing" textLength="38" x="169.25" y="1829.3866">ewrite</text></g><!--link ValidateDocs to *end*Documentation--><g id="link_ValidateDocs_*end*Documentation"><path d="M130.25,1901.4169 C130.25,1918.7169 130.25,1935.1069 130.25,1947.9369 " fill="none" id="ValidateDocs-to-*end*Documentation" style="stroke:#181818;stroke-width:1.0;"/><polygon fill="#181818" points="130.25,1953.9369,134.25,1944.9369,130.25,1948.9369,126.25,1944.9369,130.25,1953.9369" style="stroke:#181818;stroke-width:1.0;"/><text fill="#000000" font-family="sans-serif" font-size="13" lengthAdjust="spacing" textLength="49" x="131.25" y="1932.2538">docs ok</text></g><path d="M66,2093.19 L330.5,2093.19 A12.5,12.5 0 0 1 343,2105.69 L343,2119.4869 L53.5,2119.4869 L53.5,2105.69 A12.5,12.5 0 0 1 66,2093.19 " fill="#F1F1F1" style="stroke:#F1F1F1;stroke-width:1.0;"/><rect fill="none" height="418.2969" rx="12.5" ry="12.5" style="stroke:#181818;stroke-width:0.5;" width="289.5" x="53.5" y="2093.19"/><line style="stroke:#181818;stroke-width:0.5;" x1="53.5" x2="343" y1="2119.4869" y2="2119.4869"/><text fill="#000000" font-family="sans-serif" font-size="14" lengthAdjust="spacing" textLength="267" x="64.75" y="2111.1851">Commit and push to remote repository</text><ellipse cx="193.5" cy="2140.4869" fill="#222222" rx="10" ry="10" style="stroke:#222222;stroke-width:1.0;"/><g id="CommitRepo.Commit"><rect fill="#F1F1F1" height="50" rx="12.5" ry="12.5" style="stroke:#181818;stroke-width:0.5;" width="73" x="157" y="2187.4869"/><line style="stroke:#181818;stroke-width:0.5;" x1="157" x2="230" y1="2213.7837" y2="2213.7837"/><text fill="#000000" font-family="sans-serif" font-size="14" lengthAdjust="spacing" textLength="53" x="167" y="2205.482">Commit</text></g><g id="CommitRepo.Push"><rect fill="#F1F1F1" height="50" rx="12.5" ry="12.5" style="stroke:#181818;stroke-width:0.5;" width="55" x="166" y="2274.4869"/><line style="stroke:#181818;stroke-width:0.5;" x1="166" x2="221" y1="2300.7837" y2="2300.7837"/><text fill="#000000" font-family="sans-serif" font-size="14" lengthAdjust="spacing" textLength="35" x="176" y="2292.482">Push</text></g><g id="CommitRepo.RemoteTests"><rect fill="#F1F1F1" height="50" rx="12.5" ry="12.5" style="stroke:#181818;stroke-width:0.5;" width="114" x="65.5" y="2392.4869"/><line style="stroke:#181818;stroke-width:0.5;" x1="65.5" x2="179.5" y1="2418.7837" y2="2418.7837"/><text fill="#000000" font-family="sans-serif" font-size="14" lengthAdjust="spacing" textLength="94" x="75.5" y="2410.482">RemoteTests</text></g><g id="CommitRepo.RemoteBuildPDF"><rect fill="#F1F1F1" height="50" rx="12.5" ry="12.5" style="stroke:#181818;stroke-width:0.5;" width="137" x="197" y="2392.4869"/><line style="stroke:#181818;stroke-width:0.5;" x1="197" x2="334" y1="2418.7837" y2="2418.7837"/><text fill="#000000" font-family="sans-serif" font-size="14" lengthAdjust="spacing" textLength="117" x="207" y="2410.482">RemoteBuildPDF</text></g><ellipse cx="193.5" cy="2490.4869" fill="none" rx="11" ry="11" style="stroke:#222222;stroke-width:1.0;"/><ellipse cx="193.5" cy="2490.4869" fill="#222222" rx="6" ry="6" style="stroke:#222222;stroke-width:1.0;"/><!--link *start*CommitRepo to Commit--><g id="link_*start*CommitRepo_Commit"><path d="M193.5,2150.9269 C193.5,2160.1869 193.5,2168.6769 193.5,2181.1669 " fill="none" id="*start*CommitRepo-to-Commit" style="stroke:#181818;stroke-width:1.0;"/><polygon fill="#181818" points="193.5,2187.1669,197.5,2178.1669,193.5,2182.1669,189.5,2178.1669,193.5,2187.1669" style="stroke:#181818;stroke-width:1.0;"/></g><!--link Commit to Push--><g id="link_Commit_Push"><path d="M193.5,2237.6169 C193.5,2249.0069 193.5,2256.5669 193.5,2267.9969 " fill="none" id="Commit-to-Push" style="stroke:#181818;stroke-width:1.0;"/><polygon fill="#181818" points="193.5,2273.9969,197.5,2264.9969,193.5,2268.9969,189.5,2264.9969,193.5,2273.9969" style="stroke:#181818;stroke-width:1.0;"/></g><!--link Push to RemoteTests--><g id="link_Push_RemoteTests"><path d="M178.62,2324.8069 C166.5,2344.6069 152.6148,2367.3009 140.4948,2387.0809 " fill="none" id="Push-to-RemoteTests" style="stroke:#181818;stroke-width:1.0;"/><polygon fill="#181818" points="137.36,2392.1969,145.4728,2386.6128,139.9723,2387.9336,138.6515,2382.4331,137.36,2392.1969" style="stroke:#181818;stroke-width:1.0;"/><text fill="#000000" font-family="sans-serif" font-size="13" lengthAdjust="spacing" textLength="19" x="173.5" y="2355.5538">lint</text><text fill="#000000" font-family="sans-serif" font-size="13" lengthAdjust="spacing" textLength="31" x="167.5" y="2370.6866">code</text></g><!--link Push to RemoteBuildPDF--><g id="link_Push_RemoteBuildPDF"><path d="M208.59,2324.8069 C220.88,2344.6069 234.9735,2367.3205 247.2635,2387.1005 " fill="none" id="Push-to-RemoteBuildPDF" style="stroke:#181818;stroke-width:1.0;"/><polygon fill="#181818" points="250.43,2392.1969,249.0778,2382.4413,247.7912,2387.9499,242.2826,2386.6634,250.43,2392.1969" style="stroke:#181818;stroke-width:1.0;"/><text fill="#000000" font-family="sans-serif" font-size="13" lengthAdjust="spacing" textLength="30" x="238.5" y="2355.5538">build</text><text fill="#000000" font-family="sans-serif" font-size="13" lengthAdjust="spacing" textLength="30" x="238.5" y="2370.6866">docs</text></g><!--link RemoteTests to *end*CommitRepo--><g id="link_RemoteTests_*end*CommitRepo"><path d="M146.93,2442.9169 C160.73,2456.7169 172.7674,2468.7542 181.9674,2477.9542 " fill="none" id="RemoteTests-to-*end*CommitRepo" style="stroke:#181818;stroke-width:1.0;"/><polygon fill="#181818" points="186.21,2482.1969,182.6745,2473.0045,182.6745,2478.6613,177.0176,2478.6613,186.21,2482.1969" style="stroke:#181818;stroke-width:1.0;"/></g><!--link RemoteBuildPDF to *end*CommitRepo--><g id="link_RemoteBuildPDF_*end*CommitRepo"><path d="M240.72,2442.9169 C226.73,2456.7169 214.49,2468.7818 205.17,2477.9818 " fill="none" id="RemoteBuildPDF-to-*end*CommitRepo" style="stroke:#181818;stroke-width:1.0;"/><polygon fill="#181818" points="200.9,2482.1969,210.1151,2478.721,204.4584,2478.6843,204.495,2473.0276,200.9,2482.1969" style="stroke:#181818;stroke-width:1.0;"/></g><path d="M123.75,2618.49 L272.75,2618.49 A12.5,12.5 0 0 1 285.25,2630.99 L285.25,2644.7869 L111.25,2644.7869 L111.25,2630.99 A12.5,12.5 0 0 1 123.75,2618.49 " fill="#F1F1F1" style="stroke:#F1F1F1;stroke-width:1.0;"/><rect fill="none" height="450.2969" rx="12.5" ry="12.5" style="stroke:#181818;stroke-width:0.5;" width="174" x="111.25" y="2618.49"/><line style="stroke:#181818;stroke-width:0.5;" x1="111.25" x2="285.25" y1="2644.7869" y2="2644.7869"/><text fill="#000000" font-family="sans-serif" font-size="14" lengthAdjust="spacing" textLength="99" x="148.75" y="2636.4851">Thesis update</text><ellipse cx="195.25" cy="2665.7869" fill="#222222" rx="10" ry="10" style="stroke:#222222;stroke-width:1.0;"/><g id="ThesisUpdate.WriteDissertation"><rect fill="#F1F1F1" height="50" rx="12.5" ry="12.5" style="stroke:#181818;stroke-width:0.5;" width="138" x="126.25" y="2712.7869"/><line style="stroke:#181818;stroke-width:0.5;" x1="126.25" x2="264.25" y1="2739.0838" y2="2739.0838"/><text fill="#000000" font-family="sans-serif" font-size="14" lengthAdjust="spacing" textLength="118" x="136.25" y="2730.782">WriteDissertation</text></g><g id="ThesisUpdate.ReviewSentences"><rect fill="#F1F1F1" height="50" rx="12.5" ry="12.5" style="stroke:#181818;stroke-width:0.5;" width="144" x="123.25" y="2815.7869"/><line style="stroke:#181818;stroke-width:0.5;" x1="123.25" x2="267.25" y1="2842.0838" y2="2842.0838"/><text fill="#000000" font-family="sans-serif" font-size="14" lengthAdjust="spacing" textLength="124" x="133.25" y="2833.782">ReviewSentences</text></g><g id="ThesisUpdate.ProofRead"><rect fill="#F1F1F1" height="50" rx="12.5" ry="12.5" style="stroke:#181818;stroke-width:0.5;" width="92" x="149.25" y="2933.7869"/><line style="stroke:#181818;stroke-width:0.5;" x1="149.25" x2="241.25" y1="2960.0838" y2="2960.0838"/><text fill="#000000" font-family="sans-serif" font-size="14" lengthAdjust="spacing" textLength="72" x="159.25" y="2951.782">ProofRead</text></g><ellipse cx="195.25" cy="3047.7869" fill="none" rx="11" ry="11" style="stroke:#222222;stroke-width:1.0;"/><ellipse cx="195.25" cy="3047.7869" fill="#222222" rx="6" ry="6" style="stroke:#222222;stroke-width:1.0;"/><!--link *start*ThesisUpdate to WriteDissertation--><g id="link_*start*ThesisUpdate_WriteDissertation"><path d="M195.25,2676.2269 C195.25,2685.4869 195.25,2693.9769 195.25,2706.4669 " fill="none" id="*start*ThesisUpdate-to-WriteDissertation" style="stroke:#181818;stroke-width:1.0;"/><polygon fill="#181818" points="195.25,2712.4669,199.25,2703.4669,195.25,2707.4669,191.25,2703.4669,195.25,2712.4669" style="stroke:#181818;stroke-width:1.0;"/></g><!--link WriteDissertation to ReviewSentences--><g id="link_WriteDissertation_ReviewSentences"><path d="M195.25,2763.2369 C195.25,2779.1169 195.25,2793.7269 195.25,2809.5669 " fill="none" id="WriteDissertation-to-ReviewSentences" style="stroke:#181818;stroke-width:1.0;"/><polygon fill="#181818" points="195.25,2815.5669,199.25,2806.5669,195.25,2810.5669,191.25,2806.5669,195.25,2815.5669" style="stroke:#181818;stroke-width:1.0;"/><text fill="#000000" font-family="sans-serif" font-size="13" lengthAdjust="spacing" textLength="43" x="196.25" y="2793.8538">written</text></g><!--link ReviewSentences to ProofRead--><g id="link_ReviewSentences_ProofRead"><path d="M167.04,2866.2769 C162.63,2871.5769 158.72,2877.4869 156.25,2883.7869 C151.05,2897.0269 151.05,2902.5469 156.25,2915.7869 C158.72,2922.0869 158.7923,2923.3847 163.2023,2928.6847 " fill="none" id="ReviewSentences-to-ProofRead" style="stroke:#181818;stroke-width:1.0;"/><polygon fill="#181818" points="167.04,2933.2969,164.3583,2923.8202,163.8419,2929.4534,158.2087,2928.9371,167.04,2933.2969" style="stroke:#181818;stroke-width:1.0;"/><text fill="#000000" font-family="sans-serif" font-size="13" lengthAdjust="spacing" textLength="56" x="157.25" y="2904.3538">reviewed</text></g><!--link ProofRead to ReviewSentences--><g id="link_ProofRead_ReviewSentences"><path d="M208.32,2933.5169 C210.77,2927.8469 212.97,2921.7369 214.25,2915.7869 C217.25,2901.8869 217.25,2897.6869 214.25,2883.7869 C212.97,2877.8369 213.1499,2877.2347 210.6999,2871.5647 " fill="none" id="ProofRead-to-ReviewSentences" style="stroke:#181818;stroke-width:1.0;"/><polygon fill="#181818" points="208.32,2866.0569,208.218,2875.9052,210.3033,2870.6467,215.5618,2872.732,208.32,2866.0569" style="stroke:#181818;stroke-width:1.0;"/><text fill="#000000" font-family="sans-serif" font-size="13" lengthAdjust="spacing" textLength="45" x="223.75" y="2896.8538">correct</text><text fill="#000000" font-family="sans-serif" font-size="13" lengthAdjust="spacing" textLength="58" x="217.25" y="2911.9866">mistakes</text></g><!--link ProofRead to *end*ThesisUpdate--><g id="link_ProofRead_*end*ThesisUpdate"><path d="M195.25,2984.0169 C195.25,3001.3169 195.25,3017.7069 195.25,3030.5369 " fill="none" id="ProofRead-to-*end*ThesisUpdate" style="stroke:#181818;stroke-width:1.0;"/><polygon fill="#181818" points="195.25,3036.5369,199.25,3027.5369,195.25,3031.5369,191.25,3027.5369,195.25,3036.5369" style="stroke:#181818;stroke-width:1.0;"/><text fill="#000000" font-family="sans-serif" font-size="13" lengthAdjust="spacing" textLength="30" x="196.25" y="3014.8538">okay</text></g><path d="M108.75,3175.78 L287.75,3175.78 A12.5,12.5 0 0 1 300.25,3188.28 L300.25,3202.0769 L96.25,3202.0769 L96.25,3188.28 A12.5,12.5 0 0 1 108.75,3175.78 " fill="#F1F1F1" style="stroke:#F1F1F1;stroke-width:1.0;"/><rect fill="none" height="418.2969" rx="12.5" ry="12.5" style="stroke:#181818;stroke-width:0.5;" width="204" x="96.25" y="3175.78"/><line style="stroke:#181818;stroke-width:0.5;" x1="96.25" x2="300.25" y1="3202.0769" y2="3202.0769"/><text fill="#000000" font-family="sans-serif" font-size="14" lengthAdjust="spacing" textLength="103" x="146.75" y="3193.7751">Commit Thesis</text><ellipse cx="199.75" cy="3223.0769" fill="#222222" rx="10" ry="10" style="stroke:#222222;stroke-width:1.0;"/><g id="CommitThs.CommitThesis"><rect fill="#F1F1F1" height="50" rx="12.5" ry="12.5" style="stroke:#181818;stroke-width:0.5;" width="119" x="140.25" y="3270.0769"/><line style="stroke:#181818;stroke-width:0.5;" x1="140.25" x2="259.25" y1="3296.3737" y2="3296.3737"/><text fill="#000000" font-family="sans-serif" font-size="14" lengthAdjust="spacing" textLength="99" x="150.25" y="3288.072">CommitThesis</text></g><g id="CommitThs.PushThesis"><rect fill="#F1F1F1" height="50" rx="12.5" ry="12.5" style="stroke:#181818;stroke-width:0.5;" width="101" x="149.25" y="3357.0769"/><line style="stroke:#181818;stroke-width:0.5;" x1="149.25" x2="250.25" y1="3383.3737" y2="3383.3737"/><text fill="#000000" font-family="sans-serif" font-size="14" lengthAdjust="spacing" textLength="81" x="159.25" y="3375.072">PushThesis</text></g><g id="CommitThs.RemoteBuildPDFThesis"><rect fill="#F1F1F1" height="50" rx="12.5" ry="12.5" style="stroke:#181818;stroke-width:0.5;" width="183" x="108.25" y="3475.0769"/><line style="stroke:#181818;stroke-width:0.5;" x1="108.25" x2="291.25" y1="3501.3737" y2="3501.3737"/><text fill="#000000" font-family="sans-serif" font-size="14" lengthAdjust="spacing" textLength="163" x="118.25" y="3493.072">RemoteBuildPDFThesis</text></g><ellipse cx="199.75" cy="3573.0769" fill="none" rx="11" ry="11" style="stroke:#222222;stroke-width:1.0;"/><ellipse cx="199.75" cy="3573.0769" fill="#222222" rx="6" ry="6" style="stroke:#222222;stroke-width:1.0;"/><!--link *start*CommitThs to CommitThesis--><g id="link_*start*CommitThs_CommitThesis"><path d="M199.75,3233.5169 C199.75,3242.7769 199.75,3251.2669 199.75,3263.7569 " fill="none" id="*start*CommitThs-to-CommitThesis" style="stroke:#181818;stroke-width:1.0;"/><polygon fill="#181818" points="199.75,3269.7569,203.75,3260.7569,199.75,3264.7569,195.75,3260.7569,199.75,3269.7569" style="stroke:#181818;stroke-width:1.0;"/></g><!--link CommitThesis to PushThesis--><g id="link_CommitThesis_PushThesis"><path d="M199.75,3320.2069 C199.75,3331.5969 199.75,3339.1569 199.75,3350.5869 " fill="none" id="CommitThesis-to-PushThesis" style="stroke:#181818;stroke-width:1.0;"/><polygon fill="#181818" points="199.75,3356.5869,203.75,3347.5869,199.75,3351.5869,195.75,3347.5869,199.75,3356.5869" style="stroke:#181818;stroke-width:1.0;"/></g><!--link PushThesis to RemoteBuildPDFThesis--><g id="link_PushThesis_RemoteBuildPDFThesis"><path d="M199.75,3407.3969 C199.75,3427.1969 199.75,3449.0069 199.75,3468.7869 " fill="none" id="PushThesis-to-RemoteBuildPDFThesis" style="stroke:#181818;stroke-width:1.0;"/><polygon fill="#181818" points="199.75,3474.7869,203.75,3465.7869,199.75,3469.7869,195.75,3465.7869,199.75,3474.7869" style="stroke:#181818;stroke-width:1.0;"/><text fill="#000000" font-family="sans-serif" font-size="13" lengthAdjust="spacing" textLength="30" x="200.75" y="3438.1438">build</text><text fill="#000000" font-family="sans-serif" font-size="13" lengthAdjust="spacing" textLength="30" x="200.75" y="3453.2766">docs</text></g><!--link RemoteBuildPDFThesis to *end*CommitThs--><g id="link_RemoteBuildPDFThesis_*end*CommitThs"><path d="M199.75,3525.5069 C199.75,3537.8669 199.75,3546.2069 199.75,3555.6769 " fill="none" id="RemoteBuildPDFThesis-to-*end*CommitThs" style="stroke:#181818;stroke-width:1.0;"/><polygon fill="#181818" points="199.75,3561.6769,203.75,3552.6769,199.75,3556.6769,195.75,3552.6769,199.75,3561.6769" style="stroke:#181818;stroke-width:1.0;"/></g><ellipse cx="198.25" cy="3682.08" fill="none" rx="11" ry="11" style="stroke:#222222;stroke-width:1.0;"/><ellipse cx="198.25" cy="3682.08" fill="#222222" rx="6" ry="6" style="stroke:#222222;stroke-width:1.0;"/><!--link *start* to GoalsDefined--><g id="link_*start*_GoalsDefined"><path d="M204.25,26.25 C204.25,37.96 204.25,53.86 204.25,80.72 " fill="none" id="*start*-to-GoalsDefined" style="stroke:#181818;stroke-width:1.0;"/><polygon fill="#181818" points="204.25,86.72,208.25,77.72,204.25,81.72,200.25,77.72,204.25,86.72" style="stroke:#181818;stroke-width:1.0;"/></g><!--link GoalsDefined to ImplementInCode--><g id="link_GoalsDefined_ImplementInCode"><path d="M204.25,567.44 C204.25,587.57 204.25,601.93 204.25,622.06 " fill="none" id="GoalsDefined-to-ImplementInCode" style="stroke:#181818;stroke-width:1.0;"/><polygon fill="#181818" points="204.25,628.06,208.25,619.06,204.25,623.06,200.25,619.06,204.25,628.06" style="stroke:#181818;stroke-width:1.0;"/></g><!--link ImplementInCode to TestAndValidate--><g id="link_ImplementInCode_TestAndValidate"><path d="M162.87,1108.89 C159.36,1129.22 156.8732,1143.6379 153.4532,1163.3979 " fill="none" id="ImplementInCode-to-TestAndValidate" style="stroke:#181818;stroke-width:1.0;"/><polygon fill="#181818" points="152.43,1169.31,157.9063,1161.124,153.2827,1164.3832,150.0235,1159.7597,152.43,1169.31" style="stroke:#181818;stroke-width:1.0;"/></g><!--link TestAndValidate to Documentation--><g id="link_TestAndValidate_Documentation"><path d="M128.7,1532.15 C130.15,1567.12 131.4115,1597.6951 132.8515,1632.4351 " fill="none" id="TestAndValidate-to-Documentation" style="stroke:#181818;stroke-width:1.0;"/><polygon fill="#181818" points="133.1,1638.43,136.7238,1629.2721,132.8929,1633.4343,128.7307,1629.6034,133.1,1638.43" style="stroke:#181818;stroke-width:1.0;"/></g><!--link Documentation to CommitRepo--><g id="link_Documentation_CommitRepo"><path d="M154.1,1986.59 C156.56,2012.3 159.29,2038.46 162.25,2063.19 C163.42,2072.95 163.8902,2076.9709 165.2102,2087.0409 " fill="none" id="Documentation-to-CommitRepo" style="stroke:#181818;stroke-width:1.0;"/><polygon fill="#181818" points="165.99,2092.99,168.7863,2083.5465,165.3401,2088.0324,160.8542,2084.5862,165.99,2092.99" style="stroke:#181818;stroke-width:1.0;"/></g><!--link CommitRepo to Documentation--><g id="link_CommitRepo_Documentation"><path d="M173.45,2092.79 C169.24,2057.37 165.6188,2026.888 161.5288,1992.508 " fill="none" id="CommitRepo-to-Documentation" style="stroke:#181818;stroke-width:1.0;"/><polygon fill="#181818" points="160.82,1986.55,157.9112,1995.9595,161.4107,1991.515,165.8552,1995.0145,160.82,1986.55" style="stroke:#181818;stroke-width:1.0;"/><text fill="#000000" font-family="sans-serif" font-size="13" lengthAdjust="spacing" textLength="47" x="176.25" y="2029.2569">remote</text><text fill="#000000" font-family="sans-serif" font-size="13" lengthAdjust="spacing" textLength="59" x="170.25" y="2044.3897">PDF build</text><text fill="#000000" font-family="sans-serif" font-size="13" lengthAdjust="spacing" textLength="34" x="182.75" y="2059.5225">failed</text></g><!--link CommitRepo to ImplementInCode--><g id="link_CommitRepo_ImplementInCode"><path d="M234.97,2092.78 C236.2,2082.79 237.3,2072.89 238.25,2063.19 C276.84,1667.86 285.35,1565.5 253.25,1169.6 C251.65,1149.86 250.2156,1135.4235 247.6556,1114.9835 " fill="none" id="CommitRepo-to-ImplementInCode" style="stroke:#181818;stroke-width:1.0;"/><polygon fill="#181818" points="246.91,1109.03,244.0595,1118.4573,247.5314,1113.9912,251.9975,1117.4631,246.91,1109.03" style="stroke:#181818;stroke-width:1.0;"/><text fill="#000000" font-family="sans-serif" font-size="13" lengthAdjust="spacing" textLength="47" x="273.25" y="1574.9569">remote</text><text fill="#000000" font-family="sans-serif" font-size="13" lengthAdjust="spacing" textLength="32" x="280.75" y="1590.0897">tests</text><text fill="#000000" font-family="sans-serif" font-size="13" lengthAdjust="spacing" textLength="34" x="279.75" y="1605.2225">failed</text></g><!--link CommitRepo to ThesisUpdate--><g id="link_CommitRepo_ThesisUpdate"><path d="M198.25,2511.84 C198.25,2546.67 198.25,2576.94 198.25,2612.14 " fill="none" id="CommitRepo-to-ThesisUpdate" style="stroke:#181818;stroke-width:1.0;"/><polygon fill="#181818" points="198.25,2618.14,202.25,2609.14,198.25,2613.14,194.25,2609.14,198.25,2618.14" style="stroke:#181818;stroke-width:1.0;"/><text fill="#000000" font-family="sans-serif" font-size="13" lengthAdjust="spacing" textLength="47" x="199.25" y="2554.5569">remote</text><text fill="#000000" font-family="sans-serif" font-size="13" lengthAdjust="spacing" textLength="32" x="206.75" y="2569.6897">tests</text><text fill="#000000" font-family="sans-serif" font-size="13" lengthAdjust="spacing" textLength="46" x="199.75" y="2584.8225">passed</text></g><!--link ThesisUpdate to CommitThs--><g id="link_ThesisUpdate_CommitThs"><path d="M191.16,3069.1 C190.9,3094.96 190.89,3120.94 191.25,3145.78 C191.39,3155.5 191.4506,3159.4412 191.6506,3169.4912 " fill="none" id="ThesisUpdate-to-CommitThs" style="stroke:#181818;stroke-width:1.0;"/><polygon fill="#181818" points="191.77,3175.49,195.5901,3166.4122,191.6705,3170.491,187.5917,3166.5714,191.77,3175.49" style="stroke:#181818;stroke-width:1.0;"/></g><!--link CommitThs to ThesisUpdate--><g id="link_CommitThs_ThesisUpdate"><path d="M198.25,3175.58 C198.25,3140.68 198.25,3110.33 198.25,3075.05 " fill="none" id="CommitThs-to-ThesisUpdate" style="stroke:#181818;stroke-width:1.0;"/><polygon fill="#181818" points="198.25,3069.05,194.25,3078.05,198.25,3074.05,202.25,3078.05,198.25,3069.05" style="stroke:#181818;stroke-width:1.0;"/><text fill="#000000" font-family="sans-serif" font-size="13" lengthAdjust="spacing" textLength="47" x="205.25" y="3111.8469">remote</text><text fill="#000000" font-family="sans-serif" font-size="13" lengthAdjust="spacing" textLength="59" x="199.25" y="3126.9797">PDF build</text><text fill="#000000" font-family="sans-serif" font-size="13" lengthAdjust="spacing" textLength="34" x="211.75" y="3142.1125">failed</text></g><!--link CommitThs to *end*--><g id="link_CommitThs_*end*"><path d="M198.25,3594.52 C198.25,3627.97 198.25,3650.34 198.25,3664.8 " fill="none" id="CommitThs-to-*end*" style="stroke:#181818;stroke-width:1.0;"/><polygon fill="#181818" points="198.25,3670.8,202.25,3661.8,198.25,3665.8,194.25,3661.8,198.25,3670.8" style="stroke:#181818;stroke-width:1.0;"/><text fill="#000000" font-family="sans-serif" font-size="13" lengthAdjust="spacing" textLength="96" x="199.25" y="3637.1469">Daily shutdown</text></g><!--SRC=[ZLNBRjim43nRNq7aM20_u4E1DaQBt8BOJGzH3wn8suGbKY0f6qRHV-ykARuasMaEZicTMSukX-ltJx_8u-DdybtHrcpuNaZEgifOQZbvy6jomDW3eQP0aJ_LwdraltBAjZrlJBMANrrWowtZa3LfZaePJlQSsa7pMbf5HDUtlEFILgi8HDORRGK31O7Ag6YlnFHQI5jBDgfSbR121v848r81lgV6aBF72YMNU5Z7cY2GirfcsBzLLTICuEUW-ba-ASPZjt2HId9yrxG9Fk_RJoqitt5ZdwZXqBnoxI2uUek2G6Ky0QLQY09l0fgd1fw3rX9Qufkno0A1GXuIUjQx4P2Q5kKGshQrz9VaBOFTcnOVIleYMRY6s43Sn-HKiknCryC99U_XinHMK5-hIHYdzdOi2e43Am9_7q2ph8WEKkyBWFRimRhXcf0uIViVtFFjavDjxnoHWqfdJvkAw8rgXcZVS3F59lGUJoai301_TbmLxpY6yusIZGyM_rsqaeTrhVa58yiaNv63gnCMKkhpFkuwOLzvhxBdYLlENFrWZWJcZ-QTWf06c15MwQlpMkBcDlEx-01S6jnwWJJL2Z_7uOFPt4s2lDRDgWO7n1JoTH0jUzby0zHl_0eZJVdHcHACTORDI0dxK7McSs4iGN9VtcYDMgATO6nEQ6Nl4WaF6zKj4tT7ReJvqJlhp0xpipGzRGScWqFx5vtJbomb886soVYptR6ZPy4lMno7id5p3eq32yUPHjsjQQNs-4FXH6CST28u1POJDqfhti2bTWAgEd6pmFBML2TwTGyihp6PQ7SqKrTwP6O_mCpTvr71WsDFWnD3C7rViDmOM3JU13Dp6agwS_6t31DelZKR_rD-72nJ5_aF]--></g></svg>