<?xml version="1.0" encoding="us-ascii" standalone="no"?><svg xmlns="http://www.w3.org/2000/svg" xmlns:xlink="http://www.w3.org/1999/xlink" contentStyleType="text/css" height="619px" preserveAspectRatio="none" style="width:720px;height:619px;background:#FFFFFF;" version="1.1" viewBox="0 0 720 619" width="720px" zoomAndPan="magnify"><defs/><g><line style="stroke:#181818;stroke-width:0.5;stroke-dasharray:5.0,5.0;" x1="24" x2="24" y1="81.2969" y2="538.2891"/><line style="stroke:#181818;stroke-width:0.5;stroke-dasharray:5.0,5.0;" x1="213" x2="213" y1="81.2969" y2="538.2891"/><line style="stroke:#181818;stroke-width:0.5;stroke-dasharray:5.0,5.0;" x1="450.5" x2="450.5" y1="81.2969" y2="538.2891"/><line style="stroke:#181818;stroke-width:0.5;stroke-dasharray:5.0,5.0;" x1="639" x2="639" y1="81.2969" y2="538.2891"/><text fill="#000000" font-family="sans-serif" font-size="14" lengthAdjust="spacing" textLength="32" x="5" y="77.9951">User</text><ellipse cx="24" cy="13.5" fill="#E2E2F0" rx="8" ry="8" style="stroke:#181818;stroke-width:0.5;"/><path d="M24,21.5 L24,48.5 M11,29.5 L37,29.5 M24,48.5 L11,63.5 M24,48.5 L37,63.5 " fill="none" style="stroke:#181818;stroke-width:0.5;"/><text fill="#000000" font-family="sans-serif" font-size="14" lengthAdjust="spacing" textLength="32" x="5" y="550.2842">User</text><ellipse cx="24" cy="562.0859" fill="#E2E2F0" rx="8" ry="8" style="stroke:#181818;stroke-width:0.5;"/><path d="M24,570.0859 L24,597.0859 M11,578.0859 L37,578.0859 M24,597.0859 L11,612.0859 M24,597.0859 L37,612.0859 " fill="none" style="stroke:#181818;stroke-width:0.5;"/><rect fill="#E2E2F0" height="30.2969" rx="2.5" ry="2.5" style="stroke:#181818;stroke-width:0.5;" width="72" x="177" y="50"/><text fill="#000000" font-family="sans-serif" font-size="14" lengthAdjust="spacing" textLength="58" x="184" y="69.9951">WebApp</text><rect fill="#E2E2F0" height="30.2969" rx="2.5" ry="2.5" style="stroke:#181818;stroke-width:0.5;" width="72" x="177" y="537.2891"/><text fill="#000000" font-family="sans-serif" font-size="14" lengthAdjust="spacing" textLength="58" x="184" y="557.2842">WebApp</text><rect fill="#E2E2F0" height="30.2969" rx="2.5" ry="2.5" style="stroke:#181818;stroke-width:0.5;" width="89" x="406.5" y="50"/><text fill="#000000" font-family="sans-serif" font-size="14" lengthAdjust="spacing" textLength="75" x="413.5" y="69.9951">WebServer</text><rect fill="#E2E2F0" height="30.2969" rx="2.5" ry="2.5" style="stroke:#181818;stroke-width:0.5;" width="89" x="406.5" y="537.2891"/><text fill="#000000" font-family="sans-serif" font-size="14" lengthAdjust="spacing" textLength="75" x="413.5" y="557.2842">WebServer</text><rect fill="#E2E2F0" height="30.2969" rx="2.5" ry="2.5" style="stroke:#181818;stroke-width:0.5;" width="150" x="564" y="50"/><text fill="#000000" font-family="sans-serif" font-size="14" lengthAdjust="spacing" textLength="136" x="571" y="69.9951">ChemiometryLibrary</text><rect fill="#E2E2F0" height="30.2969" rx="2.5" ry="2.5" style="stroke:#181818;stroke-width:0.5;" width="150" x="564" y="537.2891"/><text fill="#000000" font-family="sans-serif" font-size="14" lengthAdjust="spacing" textLength="136" x="571" y="557.2842">ChemiometryLibrary</text><polygon fill="#181818" points="201,108.4297,211,112.4297,201,116.4297,205,112.4297" style="stroke:#181818;stroke-width:1.0;"/><line style="stroke:#181818;stroke-width:1.0;" x1="24" x2="207" y1="112.4297" y2="112.4297"/><text fill="#000000" font-family="sans-serif" font-size="13" lengthAdjust="spacing" textLength="140" x="31" y="107.3638">Upload training tables</text><polygon fill="#181818" points="201,137.5625,211,141.5625,201,145.5625,205,141.5625" style="stroke:#181818;stroke-width:1.0;"/><line style="stroke:#181818;stroke-width:1.0;" x1="24" x2="207" y1="141.5625" y2="141.5625"/><text fill="#000000" font-family="sans-serif" font-size="13" lengthAdjust="spacing" textLength="101" x="31" y="136.4966">Set parameters</text><polygon fill="#181818" points="201,166.6953,211,170.6953,201,174.6953,205,170.6953" style="stroke:#181818;stroke-width:1.0;"/><line style="stroke:#181818;stroke-width:1.0;" x1="24" x2="207" y1="170.6953" y2="170.6953"/><text fill="#000000" font-family="sans-serif" font-size="13" lengthAdjust="spacing" textLength="154" x="31" y="165.6294">(optional) Upload model</text><polygon fill="#181818" points="439,195.8281,449,199.8281,439,203.8281,443,199.8281" style="stroke:#181818;stroke-width:1.0;"/><line style="stroke:#181818;stroke-width:1.0;" x1="213" x2="445" y1="199.8281" y2="199.8281"/><text fill="#000000" font-family="sans-serif" font-size="13" lengthAdjust="spacing" textLength="214" x="220" y="194.7622">Pass training tables and/or model</text><polygon fill="#181818" points="439,224.9609,449,228.9609,439,232.9609,443,228.9609" style="stroke:#181818;stroke-width:1.0;"/><line style="stroke:#181818;stroke-width:1.0;" x1="213" x2="445" y1="228.9609" y2="228.9609"/><text fill="#000000" font-family="sans-serif" font-size="13" lengthAdjust="spacing" textLength="118" x="220" y="223.895">Load configuration</text><polygon fill="#181818" points="627,254.0938,637,258.0938,627,262.0938,631,258.0938" style="stroke:#181818;stroke-width:1.0;"/><line style="stroke:#181818;stroke-width:1.0;" x1="451" x2="633" y1="258.0938" y2="258.0938"/><text fill="#000000" font-family="sans-serif" font-size="13" lengthAdjust="spacing" textLength="164" x="458" y="253.0278">Pass preprocessed tables</text><polygon fill="#181818" points="224,283.2266,214,287.2266,224,291.2266,220,287.2266" style="stroke:#181818;stroke-width:1.0;"/><line style="stroke:#181818;stroke-width:1.0;stroke-dasharray:2.0,2.0;" x1="218" x2="638" y1="287.2266" y2="287.2266"/><text fill="#000000" font-family="sans-serif" font-size="13" lengthAdjust="spacing" textLength="81" x="230" y="282.1606">Fused tables</text><polygon fill="#181818" points="439,312.3594,449,316.3594,439,320.3594,443,316.3594" style="stroke:#181818;stroke-width:1.0;"/><line style="stroke:#181818;stroke-width:1.0;" x1="213" x2="445" y1="316.3594" y2="316.3594"/><text fill="#000000" font-family="sans-serif" font-size="13" lengthAdjust="spacing" textLength="76" x="220" y="311.2935">Run training</text><polygon fill="#181818" points="627,341.4922,637,345.4922,627,349.4922,631,345.4922" style="stroke:#181818;stroke-width:1.0;"/><line style="stroke:#181818;stroke-width:1.0;" x1="451" x2="633" y1="345.4922" y2="345.4922"/><text fill="#000000" font-family="sans-serif" font-size="13" lengthAdjust="spacing" textLength="103" x="458" y="340.4263">Execute training</text><polygon fill="#181818" points="462,370.625,452,374.625,462,378.625,458,374.625" style="stroke:#181818;stroke-width:1.0;"/><line style="stroke:#181818;stroke-width:1.0;stroke-dasharray:2.0,2.0;" x1="456" x2="638" y1="374.625" y2="374.625"/><text fill="#000000" font-family="sans-serif" font-size="13" lengthAdjust="spacing" textLength="103" x="468" y="369.5591">Training finished</text><polygon fill="#181818" points="201,399.7578,211,403.7578,201,407.7578,205,403.7578" style="stroke:#181818;stroke-width:1.0;"/><line style="stroke:#181818;stroke-width:1.0;" x1="24" x2="207" y1="403.7578" y2="403.7578"/><text fill="#000000" font-family="sans-serif" font-size="13" lengthAdjust="spacing" textLength="145" x="31" y="398.6919">Upload data to classify</text><polygon fill="#181818" points="439,428.8906,449,432.8906,439,436.8906,443,432.8906" style="stroke:#181818;stroke-width:1.0;"/><line style="stroke:#181818;stroke-width:1.0;" x1="213" x2="445" y1="432.8906" y2="432.8906"/><text fill="#000000" font-family="sans-serif" font-size="13" lengthAdjust="spacing" textLength="130" x="220" y="427.8247">Pass data to classify</text><polygon fill="#181818" points="627,458.0234,637,462.0234,627,466.0234,631,462.0234" style="stroke:#181818;stroke-width:1.0;"/><line style="stroke:#181818;stroke-width:1.0;" x1="451" x2="633" y1="462.0234" y2="462.0234"/><text fill="#000000" font-family="sans-serif" font-size="13" lengthAdjust="spacing" textLength="109" x="458" y="456.9575">Run classification</text><polygon fill="#181818" points="224,487.1563,214,491.1563,224,495.1563,220,491.1563" style="stroke:#181818;stroke-width:1.0;"/><line style="stroke:#181818;stroke-width:1.0;stroke-dasharray:2.0,2.0;" x1="218" x2="638" y1="491.1563" y2="491.1563"/><text fill="#000000" font-family="sans-serif" font-size="13" lengthAdjust="spacing" textLength="269" x="230" y="486.0903">Fused tables, classification results, graphs</text><polygon fill="#181818" points="35,516.2891,25,520.2891,35,524.2891,31,520.2891" style="stroke:#181818;stroke-width:1.0;"/><line style="stroke:#181818;stroke-width:1.0;stroke-dasharray:2.0,2.0;" x1="29" x2="212" y1="520.2891" y2="520.2891"/><text fill="#000000" font-family="sans-serif" font-size="13" lengthAdjust="spacing" textLength="165" x="41" y="515.2231">Download processed data</text><!--SRC=[bP7BJiGm34Nt-GelGMB4lWian6Cr2yGmOkqcRXifJI8d1VhtfA_fgDCEOXN9kRw-nqOP7SCn40kF7BNK7cs4JyeVlL-M3iHV2-5JHRLsDKLkzpfdv5Q8pWrs3wC9P73qng62oAYjjYL4p0s5Izs18YHpJ7R4A_ytpaVjB9hRoR9sYemGOfGCuY5cqhzX2CkfW5RT9-IXSxrltrbBPmjTDepTo7x2-9_4bzGmZVDCdfsa44XDe2lotJdNQtCcte9vR-o9vSyq6Rpya6mYpItR8KuZFgPL5Ua95IcnVKo54I4wa2PHwwAzTe8rxRNu0-oerdAum7-MUBTe1gRGc9Zg9QElmhpZvD0JPl3ilcrFDf-lo_qB]--></g></svg>