<?xml version="1.0" encoding="us-ascii" standalone="no"?><svg xmlns="http://www.w3.org/2000/svg" xmlns:xlink="http://www.w3.org/1999/xlink" contentStyleType="text/css" height="663px" preserveAspectRatio="none" style="width:1340px;height:663px;background:#FFFFFF;" version="1.1" viewBox="0 0 1340 663" width="1340px" zoomAndPan="magnify"><defs/><g><!--cluster Graphical Application--><g id="cluster_Graphical Application"><rect fill="none" height="113.61" rx="2.5" ry="2.5" style="stroke:#181818;stroke-width:1.0;" width="1091" x="159.5" y="136.8"/><text fill="#000000" font-family="sans-serif" font-size="14" font-weight="bold" lengthAdjust="spacing" textLength="166" x="622" y="151.7951">Graphical Application</text></g><!--cluster Python Library--><g id="cluster_Python Library"><rect fill="none" height="109.09" rx="2.5" ry="2.5" style="stroke:#181818;stroke-width:1.0;" width="254" x="918.5" y="315.41"/><text fill="#000000" font-family="sans-serif" font-size="14" font-weight="bold" lengthAdjust="spacing" textLength="115" x="988" y="330.4051">Python Library</text></g><g id="elem_Learn chemiometry"><ellipse cx="269.498" cy="203.0956" fill="#F1F1F1" rx="85.728" ry="19.5456" style="stroke:#181818;stroke-width:0.5;"/><text fill="#000000" font-family="sans-serif" font-size="14" lengthAdjust="spacing" textLength="132" x="203.498" y="205.9423">Learn chemiometry</text></g><g id="elem_Classify crime scene data"><ellipse cx="494.5029" cy="203.0966" fill="#F1F1F1" rx="104.5329" ry="23.3066" style="stroke:#181818;stroke-width:0.5;"/><text fill="#000000" font-family="sans-serif" font-size="14" lengthAdjust="spacing" textLength="174" x="407.5029" y="205.9433">Classify crime scene data</text></g><g id="elem_Perform data fusion"><ellipse cx="892.4998" cy="203.1" fill="#F1F1F1" rx="86.5998" ry="19.72" style="stroke:#181818;stroke-width:0.5;"/><text fill="#000000" font-family="sans-serif" font-size="14" lengthAdjust="spacing" textLength="134" x="825.4998" y="205.9466">Perform data fusion</text></g><g id="elem_Import and export data"><ellipse cx="1110.4991" cy="203.1018" fill="#F1F1F1" rx="96.3591" ry="21.6718" style="stroke:#181818;stroke-width:0.5;"/><text fill="#000000" font-family="sans-serif" font-size="14" lengthAdjust="spacing" textLength="156" x="1032.4991" y="205.9485">Import and export data</text></g><g id="elem_Make graphs"><ellipse cx="702.5011" cy="203.1002" fill="#F1F1F1" rx="68.6011" ry="16.1202" style="stroke:#181818;stroke-width:0.5;"/><text fill="#000000" font-family="sans-serif" font-size="14" lengthAdjust="spacing" textLength="89" x="655.0011" y="206.8478">Make graphs</text></g><g id="elem_Use library from Colab"><ellipse cx="1035.5029" cy="379.4546" fill="#F1F1F1" rx="93.2229" ry="21.0446" style="stroke:#181818;stroke-width:0.5;"/><text fill="#000000" font-family="sans-serif" font-size="14" lengthAdjust="spacing" textLength="149" x="961.0029" y="382.3013">Use library from Colab</text></g><g id="elem_Add new functionality"><ellipse cx="1242.4972" cy="500.2774" fill="#F1F1F1" rx="91.8872" ry="20.7774" style="stroke:#181818;stroke-width:0.5;"/><text fill="#000000" font-family="sans-serif" font-size="14" lengthAdjust="spacing" textLength="146" x="1169.4972" y="503.1241">Add new functionality</text></g><!--entity Student--><g id="elem_Student"><ellipse cx="269.5" cy="14" fill="#F1F1F1" rx="8" ry="8" style="stroke:#181818;stroke-width:0.5;"/><path d="M269.5,22 L269.5,49 M256.5,30 L282.5,30 M269.5,49 L256.5,64 M269.5,49 L282.5,64 " fill="none" style="stroke:#181818;stroke-width:0.5;"/><text fill="#000000" font-family="sans-serif" font-size="14" lengthAdjust="spacing" textLength="55" x="242" y="78.4951">Student</text></g><!--entity Forensic Analyst--><g id="elem_Forensic Analyst"><ellipse cx="494.5" cy="14" fill="#F1F1F1" rx="8" ry="8" style="stroke:#181818;stroke-width:0.5;"/><path d="M494.5,22 L494.5,49 M481.5,30 L507.5,30 M494.5,49 L481.5,64 M494.5,49 L507.5,64 " fill="none" style="stroke:#181818;stroke-width:0.5;"/><text fill="#000000" font-family="sans-serif" font-size="14" lengthAdjust="spacing" textLength="112" x="438.5" y="78.4951">Forensic Analyst</text></g><!--entity Anyone--><g id="elem_Anyone"><ellipse cx="892.5" cy="14" fill="#F1F1F1" rx="8" ry="8" style="stroke:#181818;stroke-width:0.5;"/><path d="M892.5,22 L892.5,49 M879.5,30 L905.5,30 M892.5,49 L879.5,64 M892.5,49 L905.5,64 " fill="none" style="stroke:#181818;stroke-width:0.5;"/><text fill="#000000" font-family="sans-serif" font-size="14" lengthAdjust="spacing" textLength="52" x="866.5" y="78.4951">Anyone</text></g><!--entity Google Colab User--><g id="elem_Google Colab User"><ellipse cx="70.5" cy="173.45" fill="#F1F1F1" rx="8" ry="8" style="stroke:#181818;stroke-width:0.5;"/><path d="M70.5,181.45 L70.5,208.45 M57.5,189.45 L83.5,189.45 M70.5,208.45 L57.5,223.45 M70.5,208.45 L83.5,223.45 " fill="none" style="stroke:#181818;stroke-width:0.5;"/><text fill="#000000" font-family="sans-serif" font-size="14" lengthAdjust="spacing" textLength="129" x="6" y="237.9451">Google Colab User</text></g><!--entity System manager--><g id="elem_System manager"><ellipse cx="1242.5" cy="590.55" fill="#F1F1F1" rx="8" ry="8" style="stroke:#181818;stroke-width:0.5;"/><path d="M1242.5,598.55 L1242.5,625.55 M1229.5,606.55 L1255.5,606.55 M1242.5,625.55 L1229.5,640.55 M1242.5,625.55 L1255.5,640.55 " fill="none" style="stroke:#181818;stroke-width:0.5;"/><text fill="#000000" font-family="sans-serif" font-size="14" lengthAdjust="spacing" textLength="116" x="1184.5" y="655.0451">System manager</text></g><g id="elem_Use Python library"><ellipse cx="1033.4958" cy="500.2832" fill="#F1F1F1" rx="81.8658" ry="18.7732" style="stroke:#181818;stroke-width:0.5;"/><text fill="#000000" font-family="sans-serif" font-size="14" lengthAdjust="spacing" textLength="123" x="971.0105" y="503.4563">Use Python library</text></g><!--link Student to Learn chemiometry--><g id="link_Student_Learn chemiometry"><path d="M269.5,81.96 C269.5,113.79 269.5,152.25 269.5,177.19 " fill="none" id="Student-to-Learn chemiometry" style="stroke:#181818;stroke-width:1.0;"/><polygon fill="#181818" points="269.5,183.19,273.5,174.19,269.5,178.19,265.5,174.19,269.5,183.19" style="stroke:#181818;stroke-width:1.0;"/></g><!--link Forensic Analyst to Classify crime scene data--><g id="link_Forensic Analyst_Classify crime scene data"><path d="M494.5,81.96 C494.5,112.34 494.5,148.21 494.5,173.65 " fill="none" id="Forensic Analyst-to-Classify crime scene data" style="stroke:#181818;stroke-width:1.0;"/><polygon fill="#181818" points="494.5,179.65,498.5,170.65,494.5,174.65,490.5,170.65,494.5,179.65" style="stroke:#181818;stroke-width:1.0;"/></g><!--link Anyone to Perform data fusion--><g id="link_Anyone_Perform data fusion"><path d="M892.5,81.96 C892.5,113.79 892.5,152.25 892.5,177.19 " fill="none" id="Anyone-to-Perform data fusion" style="stroke:#181818;stroke-width:1.0;"/><polygon fill="#181818" points="892.5,183.19,896.5,174.19,892.5,178.19,888.5,174.19,892.5,183.19" style="stroke:#181818;stroke-width:1.0;"/></g><!--link Anyone to Import and export data--><g id="link_Anyone_Import and export data"><path d="M918.8,63.64 C960.24,93.58 1035.536,147.957 1077.876,178.537 " fill="none" id="Anyone-to-Import and export data" style="stroke:#181818;stroke-width:1.0;"/><polygon fill="#181818" points="1082.74,182.05,1077.786,173.5378,1078.6867,179.1225,1073.102,180.0231,1082.74,182.05" style="stroke:#181818;stroke-width:1.0;"/></g><!--link Anyone to Make graphs--><g id="link_Anyone_Make graphs"><path d="M866.17,62.55 C844.73,77.46 813.94,99.59 788.5,120.8 C762.3,142.63 738.1538,166.0785 721.4338,182.8685 " fill="none" id="Anyone-to-Make graphs" style="stroke:#181818;stroke-width:1.0;"/><polygon fill="#181818" points="717.2,187.12,726.385,183.5653,720.7281,183.5771,720.7163,177.9202,717.2,187.12" style="stroke:#181818;stroke-width:1.0;"/></g><!--link Google Colab User to Use library from Colab--><g id="link_Google Colab User_Use library from Colab"><path d="M119.87,241.75 C134.51,251.23 151.05,260.41 167.5,266.41 C309.8,318.3 750.9478,356.8583 941.7878,371.5883 " fill="none" id="Google Colab User-to-Use library from Colab" style="stroke:#181818;stroke-width:1.0;"/><polygon fill="#181818" points="947.77,372.05,939.1045,367.3693,942.7848,371.6652,938.4889,375.3455,947.77,372.05" style="stroke:#181818;stroke-width:1.0;"/></g><!--reverse link Add new functionality to System manager--><g id="link_Add new functionality_System manager"><path d="M1242.5,527.55 C1242.5,544.01 1242.5,561.68 1242.5,581.59 " fill="none" id="Add new functionality-backto-System manager" style="stroke:#181818;stroke-width:1.0;"/><polygon fill="#181818" points="1242.5,521.55,1238.5,530.55,1242.5,526.55,1246.5,530.55,1242.5,521.55" style="stroke:#181818;stroke-width:1.0;"/></g><!--link Graphical Application to Python Library--><g id="link_Graphical Application_Python Library"><path d="M1234.1481,250.5747 C1233.9591,250.976 1233.766,251.3751 1233.5685,251.7718 C1233.1736,252.5654 1232.7615,253.3495 1232.3315,254.1225 C1231.4716,255.6683 1230.54,257.169 1229.531,258.6096 C1227.513,261.4908 1225.185,264.1313 1222.5,266.41 C1204,282.11 1184.7,256.35 1168.5,274.41 C1160.8975,282.8875 1156.7944,293.4938 1154.9288,304.6675 C1154.4623,307.4609 1154.1358,310.2898 1153.9293,313.1298 C1153.8777,313.8398 1154.7666,296.5747 1154.7297,297.2857 " fill="none" id="Graphical Application-to-Python Library" style="stroke:#181818;stroke-width:1.0;stroke-dasharray:7.0,7.0;"/><polygon fill="none" points="1153.7967,315.2615,1160.7216,297.5967,1148.7378,296.9747,1153.7967,315.2615" style="stroke:#181818;stroke-width:1.0;"/><text fill="#000000" font-family="sans-serif" font-size="13" lengthAdjust="spacing" textLength="46" x="1169.5" y="287.4769">&#171;uses&#187;</text></g><!--link Use library from Colab to Use Python library--><g id="link_Use library from Colab_Use Python library"><path d="M1035.16,400.88 C1034.78,423.44 1034.2698,453.4308 1033.9098,475.0608 " fill="none" id="Use library from Colab-to-Use Python library" style="stroke:#181818;stroke-width:1.0;"/><polygon fill="#181818" points="1033.81,481.06,1037.9592,472.1278,1033.8932,476.0607,1029.9603,471.9947,1033.81,481.06" style="stroke:#181818;stroke-width:1.0;"/></g><!--reverse link Graphical Application to Add new functionality--><g id="link_Graphical Application_Add new functionality"><path d="M1242.5,268.8707 C1242.5,270.3316 1242.5,254.9081 1242.5,256.4168 C1242.5,262.4512 1242.5,268.8568 1242.5,275.5502 C1242.5,288.937 1242.5,303.4747 1242.5,318.4963 C1242.5,378.5825 1242.5,446.41 1242.5,479.28 " fill="none" id="Graphical Application-backto-Add new functionality" style="stroke:#181818;stroke-width:1.0;"/><polygon fill="none" points="1242.5,250.8707,1236.5,268.8707,1248.5,268.8707,1242.5,250.8707" style="stroke:#181818;stroke-width:1.0;"/></g><!--reverse link Python Library to Add new functionality--><g id="link_Python Library_Add new functionality"><path d="M1182.4666,407.8207 C1182.6093,408.038 1173.0891,393.5339 1173.2347,393.7557 C1173.5258,394.1993 1173.8229,394.6518 1174.1255,395.1128 C1174.7307,396.0349 1175.3584,396.9912 1176.0067,397.979 C1177.3034,399.9545 1178.6826,402.0557 1180.1298,404.2606 C1183.0243,408.6705 1186.1909,413.495 1189.5137,418.5575 C1202.805,438.8075 1218.595,462.865 1229.46,479.42 " fill="none" id="Python Library-backto-Add new functionality" style="stroke:#181818;stroke-width:1.0;"/><polygon fill="none" points="1172.5895,392.7727,1177.4506,411.1131,1187.4826,404.5283,1172.5895,392.7727" style="stroke:#181818;stroke-width:1.0;"/></g><!--SRC=[XP51QiCm44NNzIa6hP95Se0I32RGKaWX47g0YJnEHAMH6ScqfktTApaE8MtSxgJH_zBxNq8w8XyiWNeKR8z6euMgRMrQHEDPmKTnDziG2eC-aZFUKPH-dePhYo6OfWSjnX44JKnGOyHyk2LflBXX3qqNqbLv_EHQBn6GQw3tONasFEChmI4ZX7dnLHHo0TlsyUWPDcOlAFs9w2KGsDC06l4ErjxYVd3Eghe6fhVqBEkS0Qs9YRXGkzZLn571Ob72hL3gmGjnC1ggvEh3MVf7L5Lnxvb6uStOrvAf2gvLLtMeH-zp4qD6ID5bL4sre7Q9dHmuP3mCwgxD-ibc9lv-kVmiV_T_3wjL5oYKPIfx0k72Dxf7pNpgUmR4_Dfjb7zjFo2_0G00]--></g></svg>